<svg xmlns="http://www.w3.org/2000/svg" width="1920" height="1080" viewBox="0 0 1920 1080">
  <defs>
    <linearGradient id="sky" x1="0" y1="0" x2="1" y2="1">
      <stop offset="0%" stop-color="#0b0f1c"/>
      <stop offset="55%" stop-color="#111b2f"/>
      <stop offset="100%" stop-color="#1a2c3d"/>
    </linearGradient>
    <radialGradient id="glow" cx="50%" cy="40%" r="45%">
      <stop offset="0%" stop-color="#4fd1c5" stop-opacity="0.45"/>
      <stop offset="100%" stop-color="#4fd1c5" stop-opacity="0"/>
    </radialGradient>
  </defs>
  <rect width="1920" height="1080" fill="url(#sky)"/>
  <rect width="1920" height="1080" fill="url(#glow)"/>
  <g fill="#ffffff" opacity="0.85">
    <circle cx="220" cy="160" r="2"/>
    <circle cx="420" cy="90" r="1.5"/>
    <circle cx="620" cy="210" r="2.5"/>
    <circle cx="840" cy="140" r="1.8"/>
    <circle cx="1060" cy="180" r="2.2"/>
    <circle cx="1300" cy="120" r="1.6"/>
    <circle cx="1540" cy="200" r="2.4"/>
    <circle cx="1760" cy="110" r="1.7"/>
  </g>
  <g opacity="0.85">
    <path d="M0 820 C 240 740, 480 760, 720 830 S 1200 920, 1920 860 L 1920 1080 L 0 1080 Z" fill="#0a121f"/>
    <path d="M0 880 C 260 800, 540 840, 800 900 S 1320 1020, 1920 940 L 1920 1080 L 0 1080 Z" fill="#0d1828"/>
  </g>
  <g text-anchor="middle" font-family="Palatino Linotype, Book Antiqua, Palatino, serif">
    <text x="960" y="470" fill="#f5f1e8" font-size="68" letter-spacing="6">UNIVERSE</text>
    <text x="960" y="560" fill="#f3c37a" font-size="72" letter-spacing="8">SURVIVAL</text>
  </g>
  <g>
    <rect x="660" y="610" width="600" height="2" fill="#4fd1c5" opacity="0.7"/>
    <rect x="780" y="640" width="360" height="2" fill="#f3c37a" opacity="0.8"/>
  </g>
</svg>
